<svg width="200" height="200" viewBox="0 0 200 200" fill="none" xmlns="http://www.w3.org/2000/svg">
<rect width="200" height="200" fill="#F9B11F"/>
<path d="M159 28V146.167H41V28H159Z" fill="#F9B11F" stroke="black" stroke-width="6"/>
<rect width="93" height="68" transform="translate(69 81.875)" fill="#F9B11F"/>
<path d="M94.96 134.84C91.52 134.84 88.2 134.42 85 133.58C81.84 132.7 79.26 131.58 77.26 130.22L81.16 121.46C83.04 122.66 85.2 123.66 87.64 124.46C90.12 125.22 92.58 125.6 95.02 125.6C96.66 125.6 97.98 125.46 98.98 125.18C99.98 124.86 100.7 124.46 101.14 123.98C101.62 123.46 101.86 122.86 101.86 122.18C101.86 121.22 101.42 120.46 100.54 119.9C99.66 119.34 98.52 118.88 97.12 118.52C95.72 118.16 94.16 117.8 92.44 117.44C90.76 117.08 89.06 116.62 87.34 116.06C85.66 115.5 84.12 114.78 82.72 113.9C81.32 112.98 80.18 111.8 79.3 110.36C78.42 108.88 77.98 107.02 77.98 104.78C77.98 102.26 78.66 99.98 80.02 97.94C81.42 95.9 83.5 94.26 86.26 93.02C89.02 91.78 92.46 91.16 96.58 91.16C99.34 91.16 102.04 91.48 104.68 92.12C107.36 92.72 109.74 93.62 111.82 94.82L108.16 103.64C106.16 102.56 104.18 101.76 102.22 101.24C100.26 100.68 98.36 100.4 96.52 100.4C94.88 100.4 93.56 100.58 92.56 100.94C91.56 101.26 90.84 101.7 90.4 102.26C89.96 102.82 89.74 103.46 89.74 104.18C89.74 105.1 90.16 105.84 91 106.4C91.88 106.92 93.02 107.36 94.42 107.72C95.86 108.04 97.42 108.38 99.1 108.74C100.82 109.1 102.52 109.56 104.2 110.12C105.92 110.64 107.48 111.36 108.88 112.28C110.28 113.16 111.4 114.34 112.24 115.82C113.12 117.26 113.56 119.08 113.56 121.28C113.56 123.72 112.86 125.98 111.46 128.06C110.1 130.1 108.04 131.74 105.28 132.98C102.56 134.22 99.12 134.84 94.96 134.84ZM134.789 134V116.24L137.549 123.38L118.769 92H131.309L144.869 114.74H137.609L151.229 92H162.749L144.029 123.38L146.669 116.24V134H134.789Z" fill="black"/>
</svg>
